<svg width="122" height="38" viewBox="0 0 122 38" fill="none" xmlns="http://www.w3.org/2000/svg">
<g clip-path="url(#clip0_1_25)">
<path fill-rule="evenodd" clip-rule="evenodd" d="M75.1755 29.7836C68.1338 35.0998 57.9271 37.9362 49.1394 37.9362C36.8177 37.9362 25.7249 33.2683 17.3328 25.5047C16.6735 24.8942 17.2642 24.0622 18.0555 24.5376C27.1122 29.9349 38.3104 33.1819 49.8779 33.1819C57.6792 33.1819 66.2612 31.5287 74.1522 28.098C75.3443 27.5793 76.3412 28.8975 75.1755 29.7836Z" fill="#FF9900"/>
<path fill-rule="evenodd" clip-rule="evenodd" d="M78.1032 26.3528C77.2065 25.175 72.1533 25.7963 69.8852 26.0719C69.1942 26.1583 69.0887 25.5424 69.7111 25.0994C73.7357 22.1981 80.3397 23.0356 81.1098 24.008C81.8799 24.9859 80.9093 31.7663 77.1274 35.0025C76.5471 35.4995 75.9933 35.2348 76.2518 34.5757C77.101 32.4038 79.0052 27.536 78.1032 26.3528Z" fill="#FF9900"/>
<path fill-rule="evenodd" clip-rule="evenodd" d="M70.0433 4.61782V1.79762C70.0433 1.37081 70.3598 1.08447 70.7396 1.08447H83.0667C83.4623 1.08447 83.7787 1.37622 83.7787 1.79762V4.21262C83.7735 4.61782 83.4412 5.14728 82.8504 5.9847L76.4627 15.3259C78.8363 15.2665 81.3418 15.6285 83.4939 16.8711C83.9792 17.152 84.1111 17.5626 84.148 17.9678V20.9771C84.148 21.3877 83.7049 21.8686 83.2407 21.62C79.4482 19.5832 74.4108 19.3617 70.2174 21.6416C69.7901 21.8794 69.3418 21.4039 69.3418 20.9933V18.1353C69.3418 17.6761 69.3471 16.8927 69.7954 16.1957L77.1959 5.32557H70.7554C70.3598 5.32557 70.0433 5.03923 70.0433 4.61782Z" fill="black"/>
<path fill-rule="evenodd" clip-rule="evenodd" d="M25.0761 22.2148H21.3257C20.9671 22.1878 20.6822 21.9123 20.6559 21.5611V1.84678C20.6559 1.45239 20.9776 1.13903 21.3785 1.13903H24.8756C25.2396 1.15523 25.5297 1.44158 25.5561 1.79815V4.37523H25.6247C26.5372 1.8846 28.2515 0.723022 30.5618 0.723022C32.9091 0.723022 34.3754 1.8846 35.4304 4.37523C36.3376 1.8846 38.4001 0.723022 40.6102 0.723022C42.182 0.723022 43.9016 1.38755 44.9513 2.87869C46.1381 4.53731 45.8955 6.9469 45.8955 9.05934L45.8902 21.5017C45.8902 21.8961 45.5684 22.2148 45.1675 22.2148H41.4225C41.048 22.1878 40.7473 21.8799 40.7473 21.5017V11.0529C40.7473 10.2209 40.8212 8.14629 40.6418 7.3575C40.3623 6.03385 39.5236 5.66106 38.437 5.66106C37.5297 5.66106 36.5803 6.28237 36.1952 7.27646C35.8102 8.27055 35.8471 9.93457 35.8471 11.0529V21.5017C35.8471 21.8961 35.5253 22.2148 35.1244 22.2148H31.3794C30.9996 22.1878 30.7042 21.8799 30.7042 21.5017L30.699 11.0529C30.699 8.85404 31.0524 5.61784 28.3886 5.61784C25.6932 5.61784 25.7987 8.773 25.7987 11.0529V21.5017C25.7987 21.8961 25.477 22.2148 25.0761 22.2148" fill="black"/>
<path fill-rule="evenodd" clip-rule="evenodd" d="M94.3912 0.723022C99.9561 0.723022 102.968 5.61784 102.968 11.8417C102.968 17.8549 99.6396 22.6255 94.3912 22.6255C88.9266 22.6255 85.9516 17.7306 85.9516 11.631C85.9516 5.49358 88.9635 0.723022 94.3912 0.723022ZM94.4229 4.74802C91.6589 4.74802 91.4849 8.60552 91.4849 11.0097C91.4849 13.4193 91.4479 18.5626 94.3912 18.5626C97.2976 18.5626 97.4348 14.4134 97.4348 11.8849C97.4348 10.2209 97.3662 8.23274 96.8756 6.65516C96.4537 5.28288 95.615 4.74802 94.4229 4.74802Z" fill="black"/>
<path fill-rule="evenodd" clip-rule="evenodd" d="M110.184 22.2148H106.449C106.075 22.1878 105.774 21.8799 105.774 21.5017L105.769 1.78195C105.801 1.41997 106.112 1.13903 106.492 1.13903H109.968C110.295 1.15523 110.564 1.38215 110.638 1.6901V4.70479H110.706C111.756 2.00886 113.227 0.723022 115.817 0.723022C117.5 0.723022 119.14 1.34433 120.195 3.04617C121.176 4.62375 121.176 7.27646 121.176 9.1836V21.5935C121.134 21.9393 120.823 22.2148 120.454 22.2148H116.693C116.35 22.1878 116.065 21.9285 116.028 21.5935V10.8854C116.028 8.72978 116.271 5.57462 113.681 5.57462C112.769 5.57462 111.93 6.20133 111.513 7.1522C110.986 8.357 110.917 9.55639 110.917 10.8854V21.5017C110.912 21.8961 110.585 22.2148 110.184 22.2148" fill="black"/>
<path fill-rule="evenodd" clip-rule="evenodd" d="M60.2165 12.7979C60.2165 14.2944 60.2534 15.5424 59.5149 16.8715C58.9189 17.952 57.9694 18.6166 56.9197 18.6166C55.4797 18.6166 54.6358 17.4928 54.6358 15.8342C54.6358 12.5602 57.5 11.9659 60.2165 11.9659V12.7979ZM63.9984 22.1607C63.7505 22.3876 63.3918 22.4038 63.1123 22.2526C61.8674 21.1936 61.6406 20.702 60.9602 19.6917C58.903 21.842 57.4419 22.4849 54.7782 22.4849C51.6186 22.4849 49.1659 20.4913 49.1659 16.4987C49.1659 13.3814 50.8116 11.2581 53.1641 10.2208C55.2002 9.30235 58.0433 9.14027 60.2165 8.88635V8.3893C60.2165 7.47625 60.285 6.39571 59.7576 5.60693C59.3039 4.89917 58.4283 4.60743 57.6529 4.60743C56.2235 4.60743 54.9523 5.3584 54.6411 6.91437C54.5778 7.26014 54.3298 7.60051 53.987 7.61672L50.3527 7.21692C50.0468 7.14669 49.7039 6.89276 49.7936 6.41192C50.627 1.89529 54.6147 0.533813 58.1804 0.533813C60.0055 0.533813 62.3896 1.03086 63.8296 2.44636C65.6547 4.19142 65.4806 6.51998 65.4806 9.05383V15.04C65.4806 16.8391 66.2086 17.6279 66.8943 18.6004C67.1316 18.9461 67.1844 19.3621 66.8784 19.6215C66.1136 20.2752 64.7527 21.4908 64.0037 22.1715L63.9984 22.1607" fill="black"/>
<path fill-rule="evenodd" clip-rule="evenodd" d="M11.0506 12.7981C11.0506 14.2947 11.0875 15.5427 10.349 16.8717C9.75298 17.9523 8.8088 18.6168 7.75386 18.6168C6.31385 18.6168 5.47517 17.493 5.47517 15.8344C5.47517 12.5604 8.33935 11.9661 11.0506 11.9661V12.7981ZM14.8325 22.1609C14.5846 22.3879 14.226 22.4041 13.9464 22.2528C12.7016 21.1939 12.48 20.7022 11.7943 19.6919C9.73715 21.8422 8.28133 22.4851 5.61231 22.4851C2.45802 22.4851 0 20.4915 0 16.499C0 13.3816 1.65099 11.2584 3.99825 10.221C6.03429 9.30259 8.87737 9.14052 11.0506 8.88659V8.38954C11.0506 7.47649 11.1191 6.39596 10.5969 5.60717C10.138 4.89942 9.26243 4.60767 8.49232 4.60767C7.06287 4.60767 5.78638 5.35864 5.47517 6.91461C5.41187 7.26039 5.16396 7.60075 4.82638 7.61696L1.18682 7.21716C0.88088 7.14693 0.543297 6.893 0.627692 6.41217C1.46638 1.89553 5.4488 0.534058 9.01452 0.534058C10.8396 0.534058 13.2238 1.0311 14.6638 2.4466C16.4888 4.19167 16.3147 6.52022 16.3147 9.05407V15.0402C16.3147 16.8393 17.0427 17.6281 17.7284 18.6006C17.971 18.9464 18.0238 19.3624 17.7178 19.6217C16.953 20.2754 15.5921 21.491 14.8431 22.1718L14.8326 22.1609" fill="black"/>
</g>
<defs>
<clipPath id="clip0_1_25">
<rect width="121.176" height="37.4027" fill="white" transform="translate(0 0.533813)"/>
</clipPath>
</defs>
</svg>
