<svg width="116" height="41" viewBox="0 0 116 41" fill="none" xmlns="http://www.w3.org/2000/svg">
<g clip-path="url(#clip0_1_41)">
<path fill-rule="evenodd" clip-rule="evenodd" d="M101.972 19.0395L94.6341 31.703L88.3735 31.7279L101.972 7.89231L115.52 31.7279H109.16L101.972 19.0382V19.0395ZM82.2133 26.2151H89.2252L85.9696 31.7279H76.8304L76.8552 25.0155V8.03885H82.2393L82.2145 26.2151H82.2133ZM62.9827 8.04009C69.6685 8.06493 75.0774 13.3554 75.0526 19.8952C75.0278 26.4113 69.6189 31.703 62.9319 31.703C56.2709 31.6782 50.8619 26.3877 50.8619 19.8467C50.8867 13.3305 56.2956 8.04009 62.9827 8.04009ZM62.9579 26.1915C66.5382 26.1915 69.4169 23.3737 69.4169 19.8952C69.4429 16.4179 66.5382 13.5752 62.9827 13.5752C59.4259 13.5503 56.5213 16.393 56.5213 19.8716C56.4965 23.3488 59.4011 26.1915 62.9567 26.1915H62.9579ZM40.8958 18.0137C40.8214 17.0326 40.5698 15.7348 40.1941 14.4867C39.4212 11.9087 38.0774 9.53869 36.263 7.55327C35.3109 6.52499 34.2348 5.56874 32.6306 4.44234C31.4077 3.83779 30.2053 3.19248 29.0255 2.50748C28.2494 2.06661 27.3221 1.52639 26.096 1.1352C24.6422 0.791446 23.1562 0.602869 21.6628 0.572623C20.2123 0.522947 18.7581 0.647136 17.356 0.915384C15.8782 1.16004 14.6509 1.55123 13.0232 1.94367C9.34118 3.53577 6.48734 5.93634 4.03269 9.12178C-4.53131 21.0998 3.20704 37.8802 17.506 39.8635C19.8602 40.1826 22.2145 40.0597 24.4422 39.5455L26.0204 39.1295C26.07 39.1047 26.1456 39.0798 26.1952 39.0798L27.999 38.3943C28.0982 38.3446 28.1738 38.3198 28.2742 38.2714L29.0255 37.9286C30.4669 37.216 31.82 36.3365 33.0571 35.3082C31.931 36.3331 30.7064 37.2437 29.4011 38.0267L29.4755 38.0764C29.7272 38.0019 29.9516 37.9286 30.202 37.8802C30.202 37.8802 30.202 38.2714 30.1524 38.1981C29.752 38.4924 30.378 38.2229 31.1789 37.8057C31.981 37.3896 32.757 36.8742 33.4575 36.2868C34.4852 35.4299 35.3865 34.4985 36.6634 32.9809C37.9651 30.7021 39.5941 28.7175 40.3454 26.0475C40.5958 25.3371 40.8202 24.505 40.9714 23.6469C41.1202 22.79 41.2219 21.9083 41.2219 21.0017C41.1971 20.0951 41.0967 19.1637 40.8958 18.0137ZM22.3645 38.1497C26.7469 37.4629 30.4276 35.0387 33.4327 31.7316C34.2596 30.5307 34.9104 29.4279 35.7113 28.2282C36.713 25.778 36.6386 23.5985 36.9634 22.056C37.3651 19.2618 36.413 17.009 35.6121 14.6084C34.3848 11.8154 32.757 9.73403 29.902 8.11709C22.6893 3.65871 12.8731 4.90681 8.19072 11.5708C8.16593 11.5708 8.03947 11.7422 7.78905 12.0849C8.1151 10.7139 8.94199 9.90541 9.76765 9.12053C12.2223 7.1124 15.0774 5.51906 18.3329 4.73667C22.0149 4.34424 25.6696 4.73667 28.9499 6.32877C33.8592 9.12053 37.1147 13.5069 37.9403 18.698V23.5004C36.9138 31.364 30.1524 37.3412 22.3645 38.1497ZM40.3702 20.2665C40.1941 8.75418 28.7503 0.988655 17.6064 2.55716C14.3509 3.36439 10.7941 4.98132 8.2651 7.23535C7.03778 8.04258 6.46255 9.53781 5.23522 10.7375C0.325924 17.9156 1.17885 27.1018 7.2882 32.6878C8.07187 33.464 8.90865 34.1843 9.79244 34.8438C4.68479 31.78 2.38014 27.149 1.57928 21.5171C1.57928 19.5077 1.97971 17.5231 2.40494 15.515C5.26126 6.71997 14.2505 0.326729 24.043 1.94367C25.6708 2.3361 27.2986 2.75214 28.9523 3.14457C31.0053 3.9518 33.0335 5.1527 34.6613 6.74605C36.289 8.3369 37.5163 10.3463 38.7437 12.3296C39.5693 13.9229 39.971 15.931 40.3714 17.5231C40.4458 18.4297 40.4458 19.3611 40.3714 20.2677L40.3702 20.2665Z" fill="black"/>
<path fill-rule="evenodd" clip-rule="evenodd" d="M30.203 20.4386C30.203 25.3875 26.0462 29.405 20.9125 29.405C15.78 29.405 11.622 25.3875 11.622 20.4386C11.622 15.4909 15.7788 11.4734 20.9125 11.4734C26.0462 11.4734 30.203 15.4909 30.203 20.4398V20.4386Z" fill="white"/>
<path fill-rule="evenodd" clip-rule="evenodd" d="M30.2539 18.9201C30.1287 18.2346 29.9278 17.6956 29.7283 16.9368C28.9262 15.2702 27.7497 13.9724 26.1963 12.8696C20.3869 9.02471 12.3982 12.7231 11.5477 19.2889C11.2229 21.8857 12.149 24.3844 13.8015 26.2956C13.3007 25.7803 12.7503 25.2425 12.3746 24.629L12.325 24.6787C12.3746 24.8252 12.5755 24.9234 12.625 25.0699C12.625 25.0699 12.4242 25.0699 12.475 25.0451C12.325 24.8749 12.4502 25.1444 12.6746 25.5108C12.8755 25.8784 13.1259 26.2224 13.4259 26.5403C13.8524 27.006 14.3024 27.422 15.0537 27.9859C16.157 28.5484 17.1327 29.2836 18.4096 29.6264C18.7604 29.7257 19.1609 29.8226 19.5625 29.8959C19.9878 29.9704 20.3882 29.9952 20.8394 29.9952C21.2647 29.9952 21.7159 29.9456 22.2664 29.8462C22.834 29.7792 23.395 29.665 23.9437 29.5047C25.1693 29.1351 26.2983 28.499 27.25 27.6418C27.7261 27.2022 28.403 26.6384 28.9274 25.9032C29.3539 25.0711 29.4034 24.6539 29.6043 24.2863C29.8039 23.9187 30.0543 23.5026 30.2303 22.9388C30.3738 22.2699 30.4576 21.5896 30.4808 20.9059C30.456 20.2203 30.4064 19.5584 30.2551 18.9213L30.2539 18.9201ZM24.2933 14.3648C25.145 14.8541 25.2702 14.9274 24.819 14.6095C25.471 14.756 25.8715 15.1236 26.2719 15.4912C27.2488 16.594 28.0497 17.8918 28.4501 19.3858C28.6757 21.076 28.4997 22.7662 27.7745 24.2614C26.4727 26.5391 24.3937 28.0579 21.9143 28.4739C21.6391 28.4739 21.3391 28.4739 21.0626 28.4988C21.7643 28.3758 22.2155 27.9349 23.4925 27.4692C24.8685 26.9799 26.4219 24.7023 27.1744 23.3784C29.3774 19.777 26.7728 16.4462 24.2933 14.3648ZM19.5861 28.5223C15.7801 28.1312 12.8494 25.0202 12.449 21.4188C12.7986 23.4281 14.0011 24.9706 15.6289 26.3428C16.2054 26.7104 17.0558 27.2246 17.6323 27.5922C18.6092 27.9598 19.1844 28.3522 20.1365 28.5236H19.5861V28.5223ZM29.8274 21.9826C29.6539 22.7426 29.4778 23.4766 29.3018 24.2366C28.9262 25.168 28.3757 26.123 27.6244 26.8818C26.8732 27.6419 25.9211 28.2293 24.9702 28.7931C24.2189 29.1843 23.2668 29.3805 22.4908 29.5755C22.0395 29.6251 21.5139 29.4289 21.0626 29.4053C26.6228 29.2575 30.4287 24.0901 29.603 18.9697C29.2014 17.4758 28.4005 16.1767 27.4236 14.879C27.0232 14.3152 26.2459 13.9724 25.6706 13.4086C22.1895 11.2291 17.5827 11.6699 14.9532 14.5362C14.5845 14.9129 14.2412 15.3136 13.9255 15.7359C15.3289 13.6781 17.5827 12.2338 20.2865 11.8165C21.2386 11.7916 22.2155 11.9643 23.1664 12.1356C27.374 13.4086 30.5043 17.4758 29.8274 21.9838V21.9826Z" fill="#D7DF23"/>
</g>
<defs>
<clipPath id="clip0_1_41">
<rect width="115.294" height="39.7404" fill="white" transform="translate(0.353027 0.524048)"/>
</clipPath>
</defs>
</svg>
