<svg width="121" height="38" viewBox="0 0 121 38" fill="none" xmlns="http://www.w3.org/2000/svg">
<path d="M34.7366 27.0418C34.5465 26.586 34.3683 26.1067 34.1782 25.6976L33.2991 23.7457L33.2634 23.7106C30.6498 18.1002 27.858 12.3963 24.8999 6.78588L24.7811 6.55212C24.4841 6.00276 24.1871 5.39497 23.8782 4.83393C23.498 4.16769 23.1298 3.4547 22.5239 2.77678C21.9333 2.06745 21.19 1.49596 20.3477 1.10354C19.5054 0.711121 18.585 0.507568 17.6531 0.507568C16.7211 0.507568 15.8007 0.711121 14.9584 1.10354C14.1161 1.49596 13.3728 2.06745 12.7822 2.77678C12.2239 3.4547 11.8081 4.16769 11.4279 4.83393C11.1309 5.44172 10.8339 6.03783 10.525 6.58718L10.4062 6.82095C7.49562 12.4314 4.65628 18.1353 2.04267 23.7457L1.97139 23.8158C1.71003 24.4236 1.40115 25.0548 1.10415 25.7327C0.914069 26.1418 0.723988 26.586 0.533908 27.0769C0.0207285 28.3623 -0.143146 29.7572 0.0584353 31.1239C0.260016 32.4907 0.820095 33.7822 1.68347 34.8711C2.54685 35.9601 3.68373 36.8089 4.98206 37.3339C6.2804 37.8589 7.69537 38.042 9.08754 37.8652C10.4222 37.6923 11.7074 37.255 12.8654 36.5795C14.4098 35.7262 15.8948 34.4873 17.558 32.699C19.2212 34.4873 20.7419 35.7262 22.2506 36.5912C23.7015 37.4291 25.3446 37.8915 27.0264 37.9353C28.974 37.9433 30.8587 37.2577 32.3326 36.0053C33.8065 34.7528 34.7701 33.0179 35.0454 31.121C35.3636 29.7579 35.256 28.332 34.7366 27.0301V27.0418ZM17.6768 28.9821C15.6334 26.4106 14.3029 24.0496 13.8514 22.0275C13.6644 21.2782 13.6241 20.5007 13.7326 19.7366C13.8158 19.1405 14.0415 18.6145 14.3504 18.1703C15.0632 17.1535 16.3106 16.5223 17.6768 16.5223C18.3256 16.5028 18.9692 16.6421 19.5498 16.9277C20.1304 17.2133 20.6298 17.6363 21.0032 18.1586C21.3121 18.6262 21.5378 19.1405 21.6091 19.7366C21.7279 20.4145 21.6804 21.1976 21.4903 22.0275C21.0389 24.0145 19.7083 26.3989 17.6768 28.9821ZM32.812 30.7119C32.677 31.675 32.2879 32.5864 31.6834 33.3555C31.079 34.1245 30.2802 34.7243 29.3668 35.0951C28.4639 35.4691 27.466 35.5743 26.4918 35.4691C25.5414 35.3522 24.591 35.0483 23.6168 34.4873C21.9994 33.5037 20.545 32.2817 19.3044 30.8639C21.7992 27.8249 23.308 25.0548 23.8782 22.5885C24.1514 21.4197 24.1871 20.3677 24.0683 19.3976C23.9199 18.4781 23.5714 17.6009 23.0466 16.8262C22.4474 15.9861 21.6475 15.3037 20.7174 14.839C19.7873 14.3743 18.7554 14.1416 17.7125 14.1612C15.5146 14.1612 13.5544 15.1664 12.3664 16.8145C11.8316 17.5873 11.486 18.4714 11.3566 19.3976C11.2022 20.3794 11.2378 21.4665 11.5467 22.5885C12.117 25.0548 13.6614 27.86 16.1205 30.8873C14.901 32.3321 13.4432 33.5649 11.8081 34.534C10.822 35.0951 9.8835 35.3873 8.9331 35.5042C7.45509 35.6904 5.96208 35.2952 4.7786 34.4044C3.59513 33.5136 2.81684 32.1993 2.61292 30.747C2.49412 29.8119 2.57728 28.8769 2.95744 27.8249C3.07624 27.4509 3.25444 27.0769 3.44452 26.6327C3.70588 26.0249 4.01476 25.3937 4.31176 24.7626L4.35928 24.6807C6.92537 19.1054 9.72906 13.4132 12.6397 7.83784L12.7585 7.60407C13.0555 7.04303 13.3525 6.44692 13.6614 5.88588C13.9702 5.28977 14.3029 4.71705 14.7306 4.24951C15.1008 3.81473 15.5633 3.46507 16.0857 3.22516C16.6081 2.98525 17.1776 2.86092 17.754 2.86092C18.3305 2.86092 18.9 2.98525 19.4224 3.22516C19.9447 3.46507 20.4073 3.81473 20.7775 4.24951C21.1933 4.71705 21.5378 5.28977 21.8467 5.88588C22.1437 6.44692 22.4407 7.05472 22.7496 7.60407L22.8684 7.83784C25.7671 13.4132 28.5708 19.1054 31.1844 24.6807L31.2201 24.7158C31.5289 25.3236 31.7903 26.0015 32.0873 26.586C32.2774 27.0418 32.4675 27.4041 32.5863 27.7899C32.812 28.8418 32.9308 29.7769 32.812 30.7119ZM49.349 28.7249C48.4538 28.7378 47.5671 28.5522 46.7548 28.1819C45.9424 27.8117 45.2252 27.2662 44.6564 26.586C43.3782 25.1365 42.6998 23.2677 42.7556 21.3496C42.736 19.3897 43.4363 17.4887 44.7277 15.9963C45.325 15.3074 46.0686 14.7557 46.906 14.3801C47.7435 14.0045 48.6544 13.8141 49.5747 13.8223C50.4407 13.799 51.2985 13.9927 52.0674 14.3853C52.8364 14.7778 53.4912 15.3564 53.9704 16.0664L54.0892 14.2314H57.5581V28.3509H54.0773L53.9585 26.2937C53.4645 27.0519 52.7817 27.6733 51.9749 28.0988C51.1682 28.5243 50.2643 28.7398 49.349 28.7249ZM50.2519 25.3587C50.9409 25.3587 51.5468 25.1717 52.1171 24.8327C52.6398 24.4587 53.0675 23.9678 53.4001 23.3717C53.6971 22.7755 53.8516 22.0626 53.8516 21.2678C53.8979 20.5774 53.7613 19.8871 53.4552 19.2643C53.1491 18.6415 52.6839 18.1074 52.1052 17.7145C51.5491 17.3736 50.9071 17.1929 50.2519 17.1929C49.5967 17.1929 48.9547 17.3736 48.3986 17.7145C47.8759 18.0885 47.4482 18.5794 47.1156 19.1755C46.8014 19.8329 46.6469 20.5532 46.6641 21.2794C46.6178 21.9698 46.7544 22.6601 47.0605 23.2829C47.3666 23.9057 47.8318 24.4397 48.4105 24.8327C48.9689 25.1717 49.5747 25.3587 50.2519 25.3587ZM63.4982 10.421C63.4982 10.8301 63.4269 11.2041 63.2368 11.508C63.0467 11.8002 62.7854 12.069 62.4408 12.256C62.0963 12.443 61.728 12.5132 61.3479 12.5132C60.9677 12.5132 60.5875 12.443 60.243 12.256C59.9172 12.0776 59.6432 11.82 59.4471 11.508C59.2631 11.175 59.1728 10.7997 59.1857 10.421C59.1857 10.0002 59.2689 9.62615 59.4471 9.33394C59.6371 8.98329 59.9104 8.7729 60.243 8.58589C60.5875 8.39888 60.9558 8.31706 61.3479 8.31706C61.726 8.30848 62.1 8.3966 62.4331 8.57279C62.7663 8.74898 63.0473 9.00722 63.2487 9.32226C63.4216 9.66303 63.5072 10.0402 63.4982 10.421ZM59.4589 28.3041V14.208H63.2368V28.3275H59.4471L59.4589 28.3041ZM73.3348 17.9015V17.9483C73.1566 17.8664 72.919 17.8314 72.7408 17.7963C72.5032 17.7496 72.3131 17.7496 72.0874 17.7496C71.0301 17.7496 70.2341 18.0535 69.7114 18.6846C69.1412 19.3275 68.8798 20.2275 68.8798 21.3846V28.3158H65.0901V14.1963H68.5709L68.6897 16.3353C69.0699 15.5872 69.5213 15.0262 70.1629 14.6054C70.801 14.1966 71.5522 13.9924 72.3131 14.021C72.5864 14.021 72.8477 14.0444 73.0735 14.0911C73.1923 14.1262 73.2635 14.1262 73.3348 14.1612V17.9015ZM74.8555 28.3041V8.41056H78.6333V16.008C79.1679 15.3301 79.7738 14.8041 80.5341 14.395C81.7378 13.8144 83.1052 13.6497 84.4157 13.9275C85.7262 14.2053 86.9034 14.9094 87.7572 15.9262C89.0382 17.3786 89.7168 19.2521 89.658 21.1742C89.6776 23.1341 88.9773 25.0351 87.6859 26.5275C87.0886 27.2164 86.345 27.7681 85.5076 28.1437C84.6701 28.5193 83.7592 28.7097 82.8389 28.7015C81.9729 28.7249 81.1151 28.5311 80.3462 28.1385C79.5772 27.746 78.9224 27.1675 78.4433 26.4574L78.3245 28.2924L74.8555 28.3275V28.3041ZM82.1617 25.3587C82.8389 25.3587 83.4448 25.1717 84.015 24.8327C84.5377 24.4587 84.9654 23.9678 85.298 23.3717C85.6069 22.7755 85.7495 22.0626 85.7495 21.2678C85.7495 20.4846 85.6069 19.7716 85.298 19.1755C84.9861 18.6007 84.5477 18.1016 84.015 17.7145C83.4589 17.3736 82.8169 17.1929 82.1617 17.1929C81.5065 17.1929 80.8645 17.3736 80.3084 17.7145C79.7738 18.0885 79.358 18.5794 79.0135 19.1755C78.6993 19.8329 78.5448 20.5532 78.562 21.2794C78.5157 21.9698 78.6523 22.6601 78.9584 23.2829C79.2645 23.9057 79.7297 24.4397 80.3084 24.8327C80.8668 25.1717 81.4727 25.3587 82.1617 25.3587ZM91.0836 28.3158V14.1963H94.5645L94.6833 16.0314C95.1207 15.3279 95.7412 14.7523 96.4806 14.3639C97.2199 13.9755 98.0514 13.7885 98.8888 13.8223C99.8465 13.806 100.788 14.0679 101.595 14.5751C102.402 15.0824 103.039 15.8125 103.427 16.6742C103.843 17.5625 104.069 18.6612 104.069 19.8885V28.3509H100.279V20.3794C100.279 19.3976 100.053 18.6262 99.6016 18.0535C99.1502 17.4924 98.5324 17.1885 97.7483 17.1885C97.1781 17.1885 96.6791 17.3054 96.2396 17.5625C95.8238 17.8314 95.4792 18.1703 95.2179 18.6496C94.9536 19.134 94.8226 19.6779 94.8377 20.2275V28.3158H91.0836ZM105.957 28.3158V8.39888H109.747V15.9963C110.26 15.3146 110.928 14.76 111.697 14.3765C112.467 13.9931 113.316 13.7913 114.178 13.7872C115.074 13.7743 115.96 13.9599 116.773 14.3302C117.585 14.7005 118.302 15.246 118.871 15.9262C120.143 17.3785 120.817 19.2463 120.76 21.1626C120.781 23.1226 120.08 25.0239 118.788 26.5158C118.191 27.2047 117.447 27.7564 116.61 28.132C115.772 28.5076 114.861 28.698 113.941 28.6899C113.075 28.7132 112.217 28.5194 111.448 28.1269C110.679 27.7343 110.024 27.1558 109.545 26.4457L109.438 28.2808L105.957 28.3158ZM113.299 25.3587C113.988 25.3587 114.594 25.1717 115.153 24.8327C115.687 24.4587 116.103 23.9678 116.448 23.3717C116.745 22.7755 116.899 22.0626 116.899 21.2678C116.945 20.5774 116.809 19.8871 116.503 19.2643C116.196 18.6415 115.731 18.1074 115.153 17.7145C114.597 17.3736 113.954 17.1929 113.299 17.1929C112.644 17.1929 112.002 17.3736 111.446 17.7145C110.923 18.0885 110.496 18.5794 110.163 19.1755C109.831 19.8271 109.676 20.5516 109.712 21.2794C109.665 21.9698 109.802 22.6601 110.108 23.2829C110.414 23.9057 110.879 24.4397 111.458 24.8327C112.016 25.1717 112.587 25.3587 113.299 25.3587Z" fill="#FF385C"/>
</svg>
