<svg width="142" height="33" viewBox="0 0 142 33" fill="none" xmlns="http://www.w3.org/2000/svg">
<g clip-path="url(#clip0_1_36)">
<path d="M50.6527 11.6711V13.5258H50.71C51.3843 12.5328 52.5038 11.3633 54.9852 11.3633C56.9157 11.3633 58.3966 12.3358 59.0313 13.8048H59.0886C59.6307 13.0621 60.2522 12.4999 60.9486 12.1019C61.7728 11.63 62.6895 11.3592 63.8443 11.3592C66.4579 11.3592 68.7718 13.0416 68.7718 17.2845V25.3313H64.7875V17.8467C64.7875 15.6965 64.0029 14.4532 62.3722 14.4532C61.1777 14.4532 60.3095 15.2 59.9789 16.1191C59.8643 16.4351 59.8114 16.866 59.8114 17.2271V25.3354H55.8271V17.543C55.8271 15.717 55.0734 14.4491 53.4646 14.4491C52.1777 14.4491 51.3711 15.3928 51.0405 16.2012C50.8995 16.5459 50.8554 16.9439 50.8554 17.3173V25.3313H46.8666V11.6711H50.6527ZM89.3372 11.6711V14.248H89.4473C90.179 12.2784 91.9155 11.3633 93.4405 11.3633C93.824 11.3633 94.0355 11.392 94.3441 11.4495V15.0276C93.9782 14.9784 93.6389 14.9292 93.1629 14.9292C91.4351 14.9292 90.2319 15.8647 89.9278 17.3296C89.8616 17.6333 89.8396 17.9616 89.8396 18.3391V25.3354H85.7495V11.6711H89.3372ZM99.8975 7.14502V11.4454H103.353V14.925H99.8975V20.0584C99.8975 21.7203 100.351 22.5245 101.7 22.5245C102.335 22.5245 102.802 22.4507 103.208 22.3563L103.26 25.241C102.718 25.4297 101.564 25.6349 100.391 25.6349C99.0116 25.6349 97.8612 25.1876 97.1604 24.4942C96.3583 23.7022 95.9881 22.4055 95.9881 20.559V7.14502H99.8975ZM44.0899 25.3313H40.1232V7.14502H44.0899V25.3313ZM33.512 20.4523C33.512 20.7026 33.4899 20.9652 33.415 21.1909C33.1065 22.1388 32.0531 22.939 30.7397 22.939C29.6422 22.939 28.7695 22.3604 28.7695 21.1335C28.7695 19.2582 30.9909 18.7371 33.5164 18.7494V20.4523H33.512ZM37.4743 17.1819C37.4743 14.0839 36.0551 11.3633 31.2553 11.3633C28.7915 11.3633 26.8346 12.0075 25.768 12.582L26.5481 15.0687C27.5222 14.4942 29.078 14.0223 30.5501 14.0223C32.9875 14.0182 33.3841 15.3067 33.3841 16.1314V16.3284C28.0731 16.3202 24.719 18.0313 24.719 21.5192C24.719 23.6489 26.4247 25.6431 29.3954 25.6431C31.2245 25.6431 32.7495 24.966 33.6662 23.8787H33.7544C33.7544 23.8787 34.3626 26.2381 37.7035 25.3354C37.5272 24.3505 37.4699 23.3042 37.4699 22.0444V17.1819H37.4743ZM4.7928 7.14502C5.20269 9.06951 6.36627 14.6583 6.36627 14.6583C6.8555 16.9562 7.30506 19.3649 7.64444 21.2689H7.70614C8.03671 19.2459 8.55679 17.3296 9.11213 14.9579L11.0735 7.14502H15.4148L17.2483 15.1589C17.7288 17.3871 18.1122 19.1064 18.4163 21.1786H18.4736C18.8042 19.0859 19.2361 17.2968 19.7077 15.0071L21.4707 7.14502H25.6358L20.4746 25.3313C17.1866 26.0001 15.9261 24.7691 15.4765 22.8159C15.027 20.8586 14.1455 17.1368 14.1455 17.1368C13.6915 15.0974 13.3389 13.6612 13.0921 11.5685H13.0304C12.6778 13.6407 12.3076 15.0933 11.761 17.1327L9.59696 25.3354C6.23845 25.9591 5.07488 25.0358 4.43138 22.5286C3.87604 20.3826 0.411758 7.14912 0.411758 7.14912H4.7928V7.14502ZM79.1382 20.4523C79.1382 20.7026 79.1162 20.9652 79.0413 21.1909C78.7327 22.1388 77.6794 22.939 76.3659 22.939C75.2685 22.939 74.3958 22.3604 74.3958 21.1335C74.3958 19.2582 76.6172 18.7371 79.1426 18.7494V20.4523H79.1382ZM83.1006 17.1819C83.1006 14.0839 81.6814 11.3633 76.8816 11.3633C74.4178 11.3633 72.4609 12.0075 71.3943 12.582L72.1744 15.0687C73.1485 14.4942 74.7043 14.0223 76.1764 14.0223C78.6093 14.0182 79.0104 15.3067 79.0104 16.1314V16.3284C73.7038 16.3202 70.3497 18.0313 70.3497 21.5192C70.3497 23.6489 72.0598 25.6431 75.0261 25.6431C76.8508 25.6431 78.3801 24.966 79.2925 23.8787H79.3851C79.3851 23.8787 79.9933 26.2381 83.3342 25.3354C83.1579 24.3505 83.1006 23.3042 83.1006 22.0444V17.1819Z" fill="#041E42"/>
<path d="M119.433 19.0683C119.824 19.7324 119.797 20.4737 119.38 20.8122L112.166 25.744C111.415 26.1682 110.29 25.6541 109.653 24.5786C109.012 23.4988 109.126 22.2948 109.877 21.8706L117.864 18.2456C118.365 18.0571 119.042 18.4042 119.433 19.0683ZM128.927 19.0683C129.322 18.4042 129.994 18.0614 130.495 18.2413L138.487 21.8663C139.238 22.2905 139.348 23.4945 138.711 24.5743C138.069 25.6498 136.94 26.1597 136.193 25.7397L128.979 20.8079C128.566 20.4737 128.536 19.7282 128.927 19.0683ZM124.178 21.742C124.964 21.742 125.61 22.1362 125.698 22.6547L126.475 31.2157C126.475 32.0641 125.46 32.7583 124.182 32.7583C122.908 32.7583 121.889 32.0641 121.889 31.2157L122.662 22.6547C122.75 22.1362 123.396 21.742 124.178 21.742ZM128.979 11.9812L136.193 7.04512C136.94 6.62092 138.069 7.13082 138.711 8.21059C139.348 9.29036 139.238 10.4944 138.487 10.9186L130.495 14.5478C129.994 14.7278 129.318 14.385 128.927 13.7209C128.536 13.0567 128.566 12.3154 128.979 11.9812ZM117.864 14.5478L109.877 10.9186C109.13 10.4944 109.016 9.29036 109.653 8.21059C110.29 7.13082 111.419 6.62092 112.166 7.04512L119.38 11.9812C119.797 12.3112 119.824 13.0567 119.433 13.7209C119.042 14.385 118.365 14.7278 117.864 14.5478ZM122.662 10.1345L121.889 1.57342C121.889 0.725023 122.903 0.0308838 124.182 0.0308838C125.46 0.0308838 126.475 0.725023 126.475 1.57342L125.698 10.1345C125.61 10.6486 124.964 11.0471 124.178 11.0471C123.396 11.0471 122.75 10.6486 122.662 10.1345ZM140.661 25.7098V25.4955H140.859C140.925 25.4955 140.969 25.5384 140.969 25.6026C140.969 25.6626 140.925 25.7098 140.859 25.7098H140.661ZM140.499 26.0997C140.499 26.1211 140.516 26.1425 140.543 26.1425H140.626C140.648 26.1425 140.67 26.1211 140.67 26.0997V25.8554H140.806L140.916 26.1125C140.925 26.1297 140.938 26.1425 140.956 26.1425H141.057C141.087 26.1425 141.109 26.1125 141.096 26.0825C141.057 26.0054 141.017 25.924 140.978 25.8426C141.044 25.8212 141.145 25.7569 141.145 25.6026C141.145 25.4398 141.008 25.3455 140.872 25.3455H140.543C140.521 25.3455 140.499 25.367 140.499 25.3884V26.0997ZM140.143 25.744C140.143 25.397 140.433 25.1142 140.789 25.1142C141.145 25.1142 141.435 25.3927 141.435 25.744C141.435 26.0911 141.149 26.3739 140.789 26.3739C140.428 26.3739 140.143 26.0911 140.143 25.744ZM139.989 25.744C139.989 26.1725 140.345 26.5239 140.789 26.5239C141.228 26.5239 141.588 26.1725 141.588 25.744C141.588 25.3156 141.228 24.9642 140.789 24.9642C140.345 24.9642 139.989 25.3156 139.989 25.744Z" fill="#FFC124"/>
</g>
<defs>
<clipPath id="clip0_1_36">
<rect width="141.176" height="32.7274" fill="white" transform="translate(0.411758 0.0308838)"/>
</clipPath>
</defs>
</svg>
