<svg width="20" height="16" viewBox="0 0 20 16" fill="none" xmlns="http://www.w3.org/2000/svg">
<path d="M19.7039 2.11366C19.0081 2.42199 18.2606 2.63033 17.4747 2.72449C18.2856 2.23932 18.8922 1.47572 19.1814 0.576161C18.4196 1.02865 17.5858 1.34716 16.7164 1.51783C16.1317 0.893549 15.3573 0.479766 14.5133 0.340723C13.6694 0.201679 12.8031 0.345154 12.0491 0.748872C11.295 1.15259 10.6954 1.79396 10.3432 2.57341C9.991 3.35287 9.90601 4.22679 10.1014 5.05949C8.5578 4.98199 7.04775 4.58079 5.66925 3.88192C4.29074 3.18304 3.07459 2.20213 2.09973 1.00283C1.76639 1.57783 1.57473 2.24449 1.57473 2.95449C1.57435 3.59366 1.73175 4.22303 2.03296 4.78677C2.33416 5.35051 2.76986 5.83119 3.30139 6.18616C2.68496 6.16655 2.08212 5.99998 1.54306 5.70033V5.75033C1.543 6.64678 1.85309 7.51564 2.42071 8.20949C2.98834 8.90334 3.77854 9.37944 4.65723 9.55699C4.08538 9.71176 3.48584 9.73455 2.90389 9.62366C3.15181 10.395 3.63472 11.0695 4.28503 11.5528C4.93534 12.036 5.72049 12.3038 6.53056 12.3187C5.15542 13.3982 3.45713 13.9837 1.70889 13.9812C1.39921 13.9812 1.08979 13.9632 0.782227 13.927C2.55679 15.068 4.62251 15.6735 6.73223 15.6712C13.8739 15.6712 17.7781 9.75616 17.7781 4.62616C17.7781 4.45949 17.7739 4.29116 17.7664 4.12449C18.5258 3.57531 19.1813 2.89524 19.7022 2.11616L19.7039 2.11366V2.11366Z" fill="white"/>
</svg>
